<svg xmlns="http://www.w3.org/2000/svg" viewBox="0 0 1200 675" fill="none">
  <defs>
    <linearGradient id="bg" x1="0" y1="0" x2="1" y2="1">
      <stop offset="0%" stop-color="#7c3aed"/>
      <stop offset="100%" stop-color="#5b21b6"/>
    </linearGradient>
    <pattern id="circuit" x="0" y="0" width="80" height="80" patternUnits="userSpaceOnUse">
      <path d="M40 0v20M40 60v20M0 40h20M60 40h80" stroke="white" stroke-width="0.5" opacity="0.06"/>
      <circle cx="40" cy="40" r="3" fill="white" opacity="0.04"/>
    </pattern>
  </defs>
  <rect width="1200" height="675" fill="url(#bg)"/>
  <rect width="1200" height="675" fill="url(#circuit)"/>
  <!-- Neural network nodes -->
  <circle cx="480" cy="240" r="16" fill="white" opacity="0.12"/>
  <circle cx="480" cy="320" r="16" fill="white" opacity="0.12"/>
  <circle cx="480" cy="400" r="16" fill="white" opacity="0.12"/>
  <circle cx="600" cy="260" r="16" fill="white" opacity="0.15"/>
  <circle cx="600" cy="340" r="16" fill="white" opacity="0.15"/>
  <circle cx="600" cy="380" r="16" fill="white" opacity="0.15"/>
  <circle cx="720" cy="300" r="16" fill="white" opacity="0.18"/>
  <circle cx="720" cy="360" r="16" fill="white" opacity="0.18"/>
  <!-- Connections -->
  <line x1="496" y1="240" x2="584" y2="260" stroke="white" stroke-width="1.5" opacity="0.08"/>
  <line x1="496" y1="240" x2="584" y2="340" stroke="white" stroke-width="1.5" opacity="0.08"/>
  <line x1="496" y1="320" x2="584" y2="260" stroke="white" stroke-width="1.5" opacity="0.08"/>
  <line x1="496" y1="320" x2="584" y2="340" stroke="white" stroke-width="1.5" opacity="0.08"/>
  <line x1="496" y1="400" x2="584" y2="340" stroke="white" stroke-width="1.5" opacity="0.08"/>
  <line x1="496" y1="400" x2="584" y2="380" stroke="white" stroke-width="1.5" opacity="0.08"/>
  <line x1="616" y1="260" x2="704" y2="300" stroke="white" stroke-width="1.5" opacity="0.08"/>
  <line x1="616" y1="340" x2="704" y2="300" stroke="white" stroke-width="1.5" opacity="0.08"/>
  <line x1="616" y1="340" x2="704" y2="360" stroke="white" stroke-width="1.5" opacity="0.08"/>
  <line x1="616" y1="380" x2="704" y2="360" stroke="white" stroke-width="1.5" opacity="0.08"/>
  <!-- Category label -->
  <rect x="480" y="440" width="240" height="48" rx="24" fill="white" opacity="0.15"/>
  <text x="600" y="472" font-family="'Noto Sans JP',sans-serif" font-size="22" font-weight="700" fill="white" text-anchor="middle">AI活用</text>
</svg>
